<?xml version="1.0" encoding="UTF-8"?>
<svg width="177.03" height="50" version="1.1" viewBox="0 0 8487.8 2397.2" xmlns="http://www.w3.org/2000/svg" xmlns:cc="http://creativecommons.org/ns#" xmlns:dc="http://purl.org/dc/elements/1.1/" xmlns:rdf="http://www.w3.org/1999/02/22-rdf-syntax-ns#">
 <metadata>
  <rdf:RDF>
   <cc:Work rdf:about="">
    <dc:format>image/svg+xml</dc:format>
    <dc:type rdf:resource="http://purl.org/dc/dcmitype/StillImage"/>
    <dc:title/>
   </cc:Work>
  </rdf:RDF>
 </metadata>
 <g transform="translate(-190.25 -466.88)" font-family="Arial" letter-spacing="95.89px" stroke-width="47.945">
  <g fill="#444" aria-label="glitchLevel.com">
   <path d="m207.51 1569.6 150.3 18.26q3.7457 26.22 17.324 36.052 18.729 14.046 58.995 14.046 51.503 0 77.255-15.451 17.324-10.301 26.22-33.243 6.0868-16.388 6.0868-60.4v-72.573q-58.995 80.533-148.89 80.533-100.2 0-158.72-84.746-45.885-66.954-45.885-166.68 0-125.01 59.931-191.03 60.399-66.018 149.83-66.018 92.238 0 152.17 81.001v-69.764h123.14v446.21q0 88.024-14.515 131.57t-40.735 68.359q-26.22 24.815-70.232 38.862-43.544 14.046-110.5 14.046-126.42 0-179.33-43.544-52.908-43.076-52.908-109.56 0-6.555 0.46821-15.919zm117.52-291.7q0 79.128 30.434 116.12 30.902 36.521 75.85 36.521 48.226 0 81.469-37.457 33.243-37.925 33.243-111.9 0-77.255-31.838-114.71-31.838-37.457-80.533-37.457-47.29 0-78.192 36.989-30.434 36.521-30.434 111.9z"/>
   <path d="m901.31 1536.8v-686.4h131.57v686.4z"/>
   <path d="m1263.6 972.16v-121.74h131.57v121.74zm0 564.66v-497.24h131.57v497.24z"/>
   <path d="m1853.9 1039.6v104.88h-89.897v200.4q0 60.868 2.3411 71.168 2.8093 9.8325 11.705 16.388 9.3643 6.5549 22.474 6.5549 18.26 0 52.908-12.642l11.237 102.07q-45.885 19.665-103.94 19.665-35.584 0-64.145-11.705-28.561-12.174-42.139-30.902-13.11-19.197-18.26-51.503-4.2139-22.942-4.2139-92.706v-216.78h-60.4v-104.88h60.4v-98.793l132.04-76.787v175.58z"/>
   <path d="m2474.7 1186.6-129.69 23.411q-6.555-38.862-29.966-58.527-22.942-19.665-59.931-19.665-49.162 0-78.66 34.18-29.029 33.711-29.029 113.31 0 88.492 29.497 125.01 29.966 36.521 80.064 36.521 37.457 0 61.336-21.07 23.879-21.538 33.711-73.509l129.23 22.006q-20.133 88.96-77.255 134.38-57.122 45.417-153.11 45.417-109.09 0-174.18-68.827-64.613-68.827-64.613-190.56 0-123.14 65.082-191.5 65.082-68.827 176.05-68.827 90.833 0 144.21 39.33 53.844 38.862 77.255 118.93z"/>
   <path d="m2801.4 850.42v252.37q63.677-74.446 152.17-74.446 45.417 0 81.937 16.856t54.781 43.076q18.728 26.22 25.284 58.058 7.0232 31.838 7.0232 98.793v291.7h-131.57v-262.67q0-78.192-7.4914-99.261t-26.688-33.243q-18.728-12.642-47.29-12.642-32.775 0-58.527 15.919-25.752 15.919-37.925 48.226-11.705 31.838-11.705 94.579v249.09h-131.57v-686.4z"/>
   <path d="m3356.6 1536.8v-680.78h138.59v565.13h344.6v115.65z"/>
   <path d="m4321.5 1378.6 131.1 22.006q-25.284 72.105-80.064 110.03-54.313 37.457-136.25 37.457-129.7 0-191.97-84.747-49.162-67.891-49.162-171.37 0-123.61 64.613-193.37 64.613-70.232 163.41-70.232 110.97 0 175.11 73.51 64.145 73.041 61.336 224.27h-329.62q1.4046 58.527 31.838 91.302 30.434 32.307 75.85 32.307 30.902 0 51.972-16.856 21.07-16.856 31.838-54.313zm7.4914-132.97q-1.4047-57.122-29.497-86.619-28.093-29.966-68.359-29.966-43.076 0-71.168 31.37-28.093 31.37-27.625 85.215z"/>
   <path d="m4799.5 1536.8-200.4-497.24h138.12l93.643 253.77 27.156 84.747q10.769-32.307 13.578-42.607 6.5549-21.07 14.046-42.139l94.579-253.77h135.31l-197.59 497.24z"/>
   <path d="m5579.9 1378.6 131.1 22.006q-25.284 72.105-80.064 110.03-54.313 37.457-136.25 37.457-129.7 0-191.97-84.747-49.162-67.891-49.162-171.37 0-123.61 64.613-193.37 64.613-70.232 163.41-70.232 110.97 0 175.11 73.51 64.145 73.041 61.336 224.27h-329.62q1.4047 58.527 31.838 91.302 30.434 32.307 75.85 32.307 30.902 0 51.972-16.856 21.07-16.856 31.838-54.313zm7.4914-132.97q-1.4046-57.122-29.497-86.619-28.093-29.966-68.359-29.966-43.076 0-71.168 31.37-28.093 31.37-27.625 85.215z"/>
   <path d="m5921.1 1536.8v-686.4h131.57v686.4z"/>
   <path d="m6283.4 1536.8v-131.57h131.57v131.57z"/>
   <path d="m7079.3 1186.6-129.69 23.411q-6.555-38.862-29.966-58.527-22.942-19.665-59.931-19.665-49.162 0-78.66 34.18-29.029 33.711-29.029 113.31 0 88.492 29.497 125.01 29.966 36.521 80.064 36.521 37.457 0 61.336-21.07 23.879-21.538 33.711-73.509l129.23 22.006q-20.133 88.96-77.255 134.38-57.122 45.417-153.11 45.417-109.09 0-174.18-68.827-64.613-68.827-64.613-190.56 0-123.14 65.082-191.5 65.082-68.827 176.05-68.827 90.833 0 144.21 39.33 53.844 38.862 77.255 118.93z"/>
   <path d="m7244.5 1281.2q0-65.55 32.307-126.89t91.302-93.643q59.463-32.307 132.5-32.307 112.84 0 184.94 73.51 72.105 73.041 72.105 184.94 0 112.84-73.041 187.29-72.573 73.978-183.07 73.978-68.359 0-130.63-30.902-61.804-30.902-94.111-90.365-32.307-59.931-32.307-145.61zm134.85 7.0232q0 73.978 35.116 113.31t86.619 39.33 86.151-39.33q35.116-39.33 35.116-114.24 0-73.041-35.116-112.37-34.648-39.33-86.151-39.33t-86.619 39.33-35.116 113.31z"/>
   <path d="m7946.7 1039.6h121.27v67.891q65.082-79.128 154.98-79.128 47.758 0 82.874 19.665 35.116 19.665 57.59 59.463 32.775-39.798 70.7-59.463 37.925-19.665 81.001-19.665 54.781 0 92.706 22.474 37.925 22.006 56.654 65.082 13.578 31.838 13.578 103.01v317.92h-131.57v-284.21q0-73.978-13.578-95.515-18.26-28.093-56.186-28.093-27.624 0-51.972 16.856-24.347 16.856-35.116 49.63-10.769 32.307-10.769 102.54v238.79h-131.57v-272.5q0-72.573-7.0232-93.642-7.0232-21.07-22.006-31.37-14.515-10.301-39.798-10.301-30.434 0-54.781 16.388-24.347 16.387-35.116 47.29-10.301 30.902-10.301 102.54v241.6h-131.57z"/>
  </g>
  <g fill="#686868" aria-label="jogar dados">
   <path d="m4526.6 1966.8v-63.607h54.781v63.607zm-69.39 507.94 10.348-46.564q16.434 4.2608 25.869 4.2608 16.739 0 24.956-11.261 8.2172-10.956 8.2172-55.39v-339.64h54.781v340.86q0 59.651-15.521 83.085-19.782 30.434-65.738 30.434-22.217 0-42.912-5.7825z"/>
   <path d="m4740.9 2187.8q0-89.781 49.912-133 41.695-35.912 101.65-35.912 66.651 0 108.95 43.825 42.303 43.521 42.303 120.52 0 62.39-18.869 98.302-18.565 35.608-54.477 55.39-35.608 19.782-77.911 19.782-67.868 0-109.87-43.521-41.695-43.521-41.695-125.39zm56.303 0q0 62.086 27.086 93.128 27.086 30.738 68.172 30.738 40.782 0 67.868-31.043 27.086-31.043 27.086-94.65 0-59.955-27.391-90.694-27.086-31.043-67.564-31.043-41.086 0-68.172 30.738-27.086 30.738-27.086 92.824z"/>
   <path d="m5193.8 2376.2 53.26 7.9129q3.3477 24.652 18.565 35.912 20.391 15.217 55.694 15.217 38.043 0 58.738-15.217 20.695-15.217 27.999-42.608 4.2608-16.739 3.9564-70.303-35.912 42.303-89.476 42.303-66.651 0-103.17-48.086-36.521-48.086-36.521-115.35 0-46.26 16.739-85.215 16.739-39.26 48.39-60.564 31.956-21.304 74.868-21.304 57.216 0 94.346 46.26v-38.956h50.521v279.38q0 75.477-15.521 106.82-15.217 31.651-48.694 49.912-33.173 18.26-81.868 18.26-57.825 0-93.433-26.173-35.608-25.869-34.39-78.216zm45.347-194.17q0 63.607 25.26 92.824t63.303 29.217q37.738 0 63.303-28.912 25.565-29.217 25.565-91.302 0-59.346-26.478-89.476-26.173-30.13-63.303-30.13-36.521 0-62.086 29.825-25.565 29.521-25.565 87.954z"/>
   <path d="m5857.3 2309.5q-30.434 25.869-58.738 36.521-27.999 10.652-60.26 10.652-53.26 0-81.868-25.869-28.608-26.173-28.608-66.651 0-23.739 10.652-43.216 10.956-19.782 28.304-31.651 17.652-11.869 39.564-17.956 16.13-4.2608 48.694-8.2173 66.346-7.9128 97.693-18.869 0.3044-11.261 0.3044-14.304 0-33.478-15.521-47.173-21-18.565-62.39-18.565-38.651 0-57.216 13.695-18.26 13.391-27.086 47.782l-53.564-7.3042q7.3041-34.39 24.043-55.39 16.739-21.304 48.39-32.564 31.651-11.565 73.346-11.565 41.39 0 67.259 9.7389 25.869 9.7389 38.043 24.652 12.174 14.608 17.043 37.13 2.7391 14 2.7391 50.521v73.042q0 76.39 3.3477 96.78 3.6521 20.086 14 38.651h-57.216q-8.5215-17.043-10.956-39.869zm-4.5652-122.34q-29.825 12.174-89.476 20.695-33.782 4.8695-47.782 10.956-14 6.0868-21.608 17.956-7.6085 11.565-7.6085 25.869 0 21.912 16.434 36.521 16.739 14.608 48.695 14.608 31.651 0 56.303-13.695 24.652-14 36.217-38.043 8.8258-18.565 8.8258-54.781z"/>
   <path d="m6088.3 2349.4v-323.21h49.303v48.999q18.869-34.391 34.695-45.347 16.13-10.956 35.304-10.956 27.695 0 56.303 17.652l-18.869 50.825q-20.086-11.869-40.173-11.869-17.956 0-32.26 10.956-14.304 10.652-20.391 29.825-9.1302 29.217-9.1302 63.912v169.21z"/>
   <path d="m6871.1 2349.4v-40.782q-30.738 48.086-90.389 48.086-38.651 0-71.216-21.304-32.26-21.304-50.216-59.346-17.652-38.347-17.652-87.954 0-48.39 16.13-87.65 16.13-39.564 48.39-60.564 32.26-21 72.129-21 29.217 0 52.042 12.478 22.826 12.174 37.13 31.956v-160.08h54.477v446.16zm-173.17-161.3q0 62.086 26.173 92.824 26.173 30.738 61.781 30.738 35.912 0 60.868-29.217 25.26-29.521 25.26-89.78 0-66.346-25.565-97.389-25.565-31.043-62.998-31.043-36.521 0-61.172 29.825-24.347 29.825-24.347 94.041z"/>
   <path d="m7314.9 2309.5q-30.434 25.869-58.738 36.521-27.999 10.652-60.26 10.652-53.26 0-81.868-25.869-28.608-26.173-28.608-66.651 0-23.739 10.652-43.216 10.956-19.782 28.304-31.651 17.652-11.869 39.564-17.956 16.13-4.2608 48.694-8.2173 66.346-7.9128 97.693-18.869 0.3043-11.261 0.3043-14.304 0-33.478-15.521-47.173-21-18.565-62.39-18.565-38.651 0-57.216 13.695-18.26 13.391-27.086 47.782l-53.564-7.3042q7.3042-34.39 24.043-55.39 16.739-21.304 48.39-32.564 31.651-11.565 73.346-11.565 41.39 0 67.259 9.7389 25.869 9.7389 38.043 24.652 12.174 14.608 17.043 37.13 2.7391 14 2.7391 50.521v73.042q0 76.39 3.3478 96.78 3.6521 20.086 14 38.651h-57.216q-8.5216-17.043-10.956-39.869zm-4.5651-122.34q-29.825 12.174-89.476 20.695-33.782 4.8695-47.782 10.956t-21.608 17.956q-7.6085 11.565-7.6085 25.869 0 21.912 16.434 36.521 16.739 14.608 48.694 14.608 31.651 0 56.303-13.695 24.652-14 36.217-38.043 8.8259-18.565 8.8259-54.781z"/>
   <path d="m7756.2 2349.4v-40.782q-30.738 48.086-90.389 48.086-38.651 0-71.216-21.304-32.26-21.304-50.216-59.346-17.652-38.347-17.652-87.954 0-48.39 16.13-87.65 16.13-39.564 48.39-60.564t72.129-21q29.217 0 52.042 12.478 22.826 12.174 37.13 31.956v-160.08h54.477v446.16zm-173.17-161.3q0 62.086 26.173 92.824 26.173 30.738 61.781 30.738 35.912 0 60.868-29.217 25.26-29.521 25.26-89.78 0-66.346-25.565-97.389-25.565-31.043-62.998-31.043-36.521 0-61.172 29.825-24.347 29.825-24.347 94.041z"/>
   <path d="m7968.6 2187.8q0-89.781 49.912-133 41.695-35.912 101.65-35.912 66.651 0 108.95 43.825 42.303 43.521 42.303 120.52 0 62.39-18.869 98.302-18.565 35.608-54.477 55.39-35.608 19.782-77.911 19.782-67.868 0-109.87-43.521-41.695-43.521-41.695-125.39zm56.303 0q0 62.086 27.086 93.128 27.086 30.738 68.172 30.738 40.782 0 67.868-31.043 27.086-31.043 27.086-94.65 0-59.955-27.391-90.694-27.086-31.043-67.564-31.043-41.086 0-68.172 30.738-27.086 30.738-27.086 92.824z"/>
   <path d="m8409.7 2252.9 54.173-8.5216q4.5651 32.564 25.26 49.912 21 17.348 58.433 17.348 37.738 0 55.999-15.217 18.26-15.521 18.26-36.216 0-18.565-16.13-29.217-11.261-7.3041-55.999-18.565-60.26-15.217-83.694-26.173-23.13-11.261-35.304-30.738-11.869-19.782-11.869-43.521 0-21.608 9.7389-39.869 10.043-18.565 27.086-30.738 12.782-9.4345 34.695-15.826 22.217-6.6955 47.477-6.6955 38.043 0 66.651 10.956 28.912 10.956 42.608 29.825 13.695 18.565 18.869 49.912l-53.564 7.3041q-3.6521-24.956-21.304-38.956-17.347-14-49.303-14-37.738 0-53.868 12.478t-16.13 29.217q0 10.652 6.6955 19.174 6.6955 8.8259 21 14.608 8.2172 3.0434 48.39 14 58.129 15.521 80.955 25.565 23.13 9.7389 36.217 28.608 13.087 18.869 13.087 46.868 0 27.391-16.13 51.738-15.826 24.043-45.955 37.434-30.13 13.087-68.172 13.087-62.998 0-96.172-26.173-32.869-26.173-41.999-77.607z"/>
  </g>
 </g>
</svg>
