<?xml version="1.0" encoding="UTF-8" standalone="no"?>
<svg
   xmlns:dc="http://purl.org/dc/elements/1.1/"
   xmlns:cc="http://creativecommons.org/ns#"
   xmlns:rdf="http://www.w3.org/1999/02/22-rdf-syntax-ns#"
   xmlns:svg="http://www.w3.org/2000/svg"
   xmlns="http://www.w3.org/2000/svg"
   xmlns:sodipodi="http://sodipodi.sourceforge.net/DTD/sodipodi-0.dtd"
   xmlns:inkscape="http://www.inkscape.org/namespaces/inkscape"
   width="176.68005"
   height="24.082924"
   version="1.1"
   viewBox="0 0 8471.022 1154.6317"
   id="svg60"
   sodipodi:docname="logo2.svg"
   inkscape:version="1.0.2 (e86c870879, 2021-01-15, custom)">
  <defs
     id="defs64" />
  <sodipodi:namedview
     pagecolor="#ffffff"
     bordercolor="#666666"
     borderopacity="1"
     objecttolerance="10"
     gridtolerance="10"
     guidetolerance="10"
     inkscape:pageopacity="0"
     inkscape:pageshadow="2"
     inkscape:window-width="1523"
     inkscape:window-height="818"
     id="namedview62"
     showgrid="false"
     showborder="true"
     fit-margin-top="0"
     fit-margin-left="0"
     fit-margin-right="0"
     fit-margin-bottom="0"
     inkscape:zoom="3.1614699"
     inkscape:cx="106.36835"
     inkscape:cy="14.421813"
     inkscape:window-x="480"
     inkscape:window-y="20"
     inkscape:window-maximized="0"
     inkscape:current-layer="svg60" />
  <metadata
     id="metadata2">
    <rdf:RDF>
      <cc:Work
         rdf:about="">
        <dc:format>image/svg+xml</dc:format>
        <dc:type
           rdf:resource="http://purl.org/dc/dcmitype/StillImage" />
        <dc:title></dc:title>
      </cc:Work>
    </rdf:RDF>
  </metadata>
  <g
     aria-label="glitchLevel.com"
     id="text918"
     style="font-size:1246.58px;line-height:1.25;font-family:Arial;-inkscape-font-specification:Arial;letter-spacing:0px;stroke-width:47.9455">
    <path
       d="m 21.91254,945.87258 106.51928,15.82572 q 6.6955,49.3032 37.12958,71.8244 40.78167,30.4341 111.38874,30.4341 76.0852,0 117.47555,-30.4341 41.39035,-30.4341 55.99871,-85.2154 8.52154,-33.47749 7.91286,-140.60545 -71.82443,84.60674 -178.9524,84.60674 -133.30127,0 -206.343064,-96.17169 Q 1.7881393e-6,699.9652 1.7881393e-6,565.44656 q 0,-92.5196 33.4774892118607,-170.43085 33.477489,-78.51993 96.780379,-121.12764 63.91157,-42.60771 149.73568,-42.60771 114.43214,0 188.6913,92.5196 V 245.88871 H 569.726 v 558.76973 q 0,150.95304 -31.04277,213.64726 -30.43408,63.3029 -97.38905,99.8238 -66.3463,36.5209 -163.73536,36.5209 -115.64951,0 -186.865257,-52.3466 Q 19.477814,1050.5658 21.91254,945.87258 Z M 112.6061,557.5337 q 0,127.21446 50.52058,185.6479 50.52057,58.43343 126.60577,58.43343 75.47652,0 126.60578,-57.82475 51.12926,-58.43344 51.12926,-182.60449 0,-118.69291 -52.95531,-178.95239 -52.34661,-60.25948 -126.60577,-60.25948 -73.0418,0 -124.17105,59.6508 -51.12926,59.04211 -51.12926,175.90898 z"
       style="font-size:1246.58px;fill:#444444;fill-opacity:1;stroke-width:47.9455"
       id="path924" />
    <path
       d="M 732.8527,892.30859 V -0.01865995 H 842.41539 V 892.30859 Z"
       style="font-size:1246.58px;fill:#444444;fill-opacity:1;stroke-width:47.9455"
       id="path926" />
    <path
       d="M 1012.8462,125.97844 V -0.01865995 h 109.5627 V 125.97844 Z m 0,766.33015 V 245.88871 h 109.5627 v 646.41988 z"
       style="font-size:1246.58px;fill:#444444;fill-opacity:1;stroke-width:47.9455"
       id="path928" />
    <path
       d="m 1528.3996,794.31085 15.8258,96.78038 q -46.2599,9.73891 -82.7807,9.73891 -59.6508,0 -92.5197,-18.86913 -32.8688,-18.86913 -46.2598,-49.30321 -13.391,-31.04277 -13.391,-129.64919 V 331.10414 h -80.3459 v -85.21543 h 80.3459 V 85.805448 L 1418.2283,20.067833 V 245.88871 h 110.1713 v 85.21543 h -110.1713 v 377.99129 q 0,46.86848 5.4781,60.25948 6.0868,13.39099 18.8691,21.30385 13.391,7.91286 37.7383,7.91286 18.2604,0 48.0858,-4.26077 z"
       style="font-size:1246.58px;fill:#444444;fill-opacity:1;stroke-width:47.9455"
       id="path930" />
    <path
       d="m 2057.344,655.53144 107.7366,13.99968 q -17.6518,111.38874 -90.6936,174.69163 -72.4331,62.6942 -178.3437,62.6942 -132.6926,0 -213.6472,-86.43279 -80.346,-87.04147 -80.346,-248.95078 0,-104.69324 34.6949,-183.21317 34.6948,-78.51993 105.3019,-117.47555 71.2157,-39.5643 154.6051,-39.5643 105.3019,0 172.2569,53.56398 66.955,52.9553 85.8241,150.95304 l -106.5193,16.4344 q -15.217,-65.12893 -54.1726,-97.99774 -38.347,-32.86881 -93.1283,-32.86881 -82.7807,0 -134.5187,59.6508 -51.7379,59.04212 -51.7379,187.47394 0,130.25787 49.9119,189.29999 49.9119,59.04211 130.2579,59.04211 64.5202,0 107.7366,-39.5643 43.2164,-39.56431 54.7814,-121.73633 z"
       style="font-size:1246.58px;fill:#444444;fill-opacity:1;stroke-width:47.9455"
       id="path932" />
    <path
       d="M 2258.8174,892.30859 V -0.01865995 h 109.5627 V 320.14787 q 76.6939,-88.86751 193.5607,-88.86751 71.8245,0 124.7798,28.60803 52.9553,27.99936 75.4765,77.91125 23.1299,49.91189 23.1299,144.86622 V 892.30859 H 2675.7643 V 482.66586 q 0,-82.17201 -35.9122,-119.30159 -35.3035,-37.73826 -100.4325,-37.73826 -48.6945,0 -91.9109,25.56462 -42.6077,24.95595 -60.8682,68.17235 -18.2604,43.21639 -18.2604,119.30159 v 353.64402 z"
       style="font-size:1246.58px;fill:#444444;fill-opacity:1;stroke-width:47.9455"
       id="path934" />
    <path
       d="M 2961.2362,892.30859 V -0.01865995 h 118.0842 V 787.00667 h 439.4682 v 105.30192 z"
       style="font-size:1246.58px;fill:#444444;fill-opacity:1;stroke-width:47.9455"
       id="path936" />
    <path
       d="m 4087.9058,684.13948 113.2148,13.99968 q -26.782,99.2151 -99.2151,153.99645 -72.4331,54.78134 -185.0392,54.78134 -141.8228,0 -225.2122,-87.04147 -82.7807,-87.65015 -82.7807,-245.29869 0,-163.12668 83.9981,-253.21156 83.998,-90.08487 217.908,-90.08487 129.6492,0 211.8212,88.25883 82.172,88.25883 82.172,248.3421 0,9.73891 -0.6087,29.21672 h -482.0758 q 6.0868,106.51928 60.2595,163.12667 54.1726,56.60739 135.1273,56.60739 60.2595,0 102.8672,-31.65144 42.6077,-31.65145 67.5636,-101.04115 z M 3728.175,507.01313 h 360.9482 q -7.3042,-81.56334 -41.3904,-122.34501 -52.3466,-63.30289 -135.736,-63.30289 -75.4765,0 -127.2144,50.52058 -51.1293,50.52057 -56.6074,135.12732 z"
       style="font-size:1246.58px;fill:#444444;fill-opacity:1;stroke-width:47.9455"
       id="path938" />
    <path
       d="M 4518.2437,892.30859 4272.3363,245.88871 h 115.6495 l 138.7794,387.12151 q 22.5213,62.69421 41.3904,130.25787 14.6084,-51.12926 40.7817,-122.95369 l 143.6488,-394.42569 h 112.6061 l -244.69,646.41988 z"
       style="font-size:1246.58px;fill:#444444;fill-opacity:1;stroke-width:47.9455"
       id="path940" />
    <path
       d="m 5404.4842,684.13948 113.2148,13.99968 q -26.782,99.2151 -99.2151,153.99645 -72.4331,54.78134 -185.0392,54.78134 -141.8228,0 -225.2122,-87.04147 -82.7807,-87.65015 -82.7807,-245.29869 0,-163.12668 83.998,-253.21156 83.9981,-90.08487 217.9081,-90.08487 129.6491,0 211.8212,88.25883 82.172,88.25883 82.172,248.3421 0,9.73891 -0.6087,29.21672 h -482.0758 q 6.0868,106.51928 60.2594,163.12667 54.1727,56.60739 135.1274,56.60739 60.2594,0 102.8671,-31.65144 42.6078,-31.65145 67.5637,-101.04115 z M 5044.7534,507.01313 h 360.9482 q -7.3042,-81.56334 -41.3904,-122.34501 -52.3466,-63.30289 -135.736,-63.30289 -75.4765,0 -127.2144,50.52058 -51.1293,50.52057 -56.6074,135.12732 z"
       style="font-size:1246.58px;fill:#444444;fill-opacity:1;stroke-width:47.9455"
       id="path942" />
    <path
       d="M 5652.8265,892.30859 V -0.01865995 h 109.5627 V 892.30859 Z"
       style="font-size:1246.58px;fill:#444444;fill-opacity:1;stroke-width:47.9455"
       id="path944" />
    <path
       d="M 5963.2537,892.30859 V 767.52886 h 124.7797 v 124.77973 z"
       style="font-size:1246.58px;fill:#444444;fill-opacity:1;stroke-width:47.9455"
       id="path946" />
    <path
       d="m 6700.3672,655.53144 107.7366,13.99968 q -17.6518,111.38874 -90.6936,174.69163 -72.4331,62.6942 -178.3437,62.6942 -132.6926,0 -213.6472,-86.43279 -80.346,-87.04147 -80.346,-248.95078 0,-104.69324 34.6949,-183.21317 34.6948,-78.51993 105.3019,-117.47555 71.2157,-39.5643 154.6051,-39.5643 105.3019,0 172.2569,53.56398 66.955,52.9553 85.8241,150.95304 l -106.5193,16.4344 q -15.217,-65.12893 -54.1726,-97.99774 -38.347,-32.86881 -93.1283,-32.86881 -82.7807,0 -134.5187,59.6508 -51.7379,59.04212 -51.7379,187.47394 0,130.25787 49.9119,189.29999 49.9119,59.04211 130.2579,59.04211 64.5202,0 107.7366,-39.5643 43.2164,-39.56431 54.7814,-121.73633 z"
       style="font-size:1246.58px;fill:#444444;fill-opacity:1;stroke-width:47.9455"
       id="path948" />
    <path
       d="m 6861.0592,569.09865 q 0,-179.56107 99.8237,-265.99386 83.3894,-71.82443 203.2997,-71.82443 133.3013,0 217.908,87.65015 84.6068,87.04147 84.6068,241.03792 0,124.77973 -37.7383,196.60416 -37.1296,71.21575 -108.954,110.78006 -71.2157,39.5643 -155.8225,39.5643 -135.736,0 -219.7341,-87.04147 -83.3893,-87.04147 -83.3893,-250.77683 z m 112.6061,0 q 0,124.17105 54.1726,186.25658 54.1727,61.47684 136.3447,61.47684 81.5633,0 135.736,-62.08552 54.1727,-62.08553 54.1727,-189.29999 0,-119.91027 -54.7814,-181.38712 -54.1726,-62.08552 -135.1273,-62.08552 -82.172,0 -136.3447,61.47684 -54.1726,61.47684 -54.1726,185.64789 z"
       style="font-size:1246.58px;fill:#444444;fill-opacity:1;stroke-width:47.9455"
       id="path950" />
    <path
       d="M 7595.1294,892.30859 V 245.88871 h 97.9977 v 90.69357 q 30.4341,-47.47717 80.9547,-76.08521 50.5206,-29.21671 115.0408,-29.21671 71.8245,0 117.4756,29.82539 46.2598,29.8254 65.1289,83.38939 76.6939,-113.21478 199.6476,-113.21478 96.1717,0 147.9096,53.56398 51.738,52.9553 51.738,163.73535 v 443.7289 h -108.9541 v -407.208 q 0,-65.73761 -10.9562,-94.34565 -10.3476,-29.21672 -38.347,-46.86849 -27.9993,-17.65176 -65.7376,-17.65176 -68.1723,0 -113.2148,45.65112 -45.0424,45.04244 -45.0424,144.86622 V 892.30859 H 7979.2075 V 472.31828 q 0,-73.0418 -26.782,-109.56269 -26.782,-36.5209 -87.6501,-36.5209 -46.2598,0 -85.8241,24.34726 -38.9557,24.34727 -56.6074,71.21575 -17.6518,46.86849 -17.6518,135.12732 v 335.38357 z"
       style="font-size:1246.58px;fill:#444444;fill-opacity:1;stroke-width:47.9455"
       id="path952" />
  </g>
</svg>
